<?xml version="1.0" encoding="UTF-8"?>
<svg id="Layer_1" xmlns="http://www.w3.org/2000/svg" version="1.1" viewBox="0 0 2500 2500">
  <!-- Generator: Adobe Illustrator 30.2.1, SVG Export Plug-In . SVG Version: 2.1.1 Build 1)  -->
  <defs>
    <style>
      .st0 {
        fill: #fff;
      }

      .st0, .st1 {
        fill-rule: evenodd;
      }

      .st2 {
        fill: #f90;
      }
    </style>
  </defs>
  <path class="st2" d="M2152.19,2018.38c-1012,481.62-1640.05,78.66-2042.09-166.09-24.88-15.42-67.16,3.61-30.47,45.75,133.94,162.4,572.89,553.84,1145.84,553.84s914.44-312.84,957.1-367.42c42.38-54.11,12.44-83.96-30.39-66.08h0ZM2436.41,1861.41c-27.18-35.39-165.25-41.99-252.15-31.31-87.03,10.37-217.66,63.56-206.3,95.49,5.83,11.96,17.72,6.6,77.51,1.22,59.95-5.98,227.89-27.18,262.89,18.57,35.16,46.06-53.56,265.49-69.77,300.88-15.66,35.39,5.98,44.51,35.39,20.94,29-23.56,81.51-84.58,116.74-170.92,34.99-86.82,56.33-207.93,35.68-234.87h0Z"/>
  <path class="st1" d="M1471.74,1035.62c0,126.37,3.19,231.76-60.68,343.98-51.55,91.25-133.22,147.36-224.46,147.36-124.55,0-197.09-94.9-197.09-234.95,0-276.48,247.72-326.65,482.23-326.65v70.26ZM1798.84,1826.26c-21.44,19.16-52.47,20.53-76.64,7.75-107.67-89.41-126.83-130.93-186.14-216.25-177.93,181.58-303.84,235.86-534.69,235.86-272.82,0-485.42-168.35-485.42-505.49,0-263.23,142.81-442.53,345.81-530.12,176.11-77.57,422.01-91.25,609.98-112.69v-41.98c0-77.11,5.92-168.35-39.24-234.95-39.7-59.77-115.43-84.4-182.04-84.4-123.63,0-234.04,63.41-260.95,194.8-5.48,29.21-26.92,57.95-56.11,59.31l-314.8-33.75c-26.46-5.94-55.65-27.38-48.35-67.99C642.78,114.98,987.22,0,1295.62,0,1453.48,0,1659.68,41.98,1784.24,161.51c157.86,147.35,142.8,343.98,142.8,557.95v505.49c0,151.92,62.96,218.53,122.26,300.65,20.98,29.2,25.55,64.33-.91,86.22-66.15,55.2-183.86,157.86-248.64,215.34l-.91-.91"/>
  <path class="st2" d="M2152.19,2018.38c-1012,481.62-1640.05,78.66-2042.09-166.09-24.88-15.42-67.16,3.61-30.47,45.75,133.94,162.4,572.89,553.84,1145.84,553.84s914.44-312.84,957.1-367.42c42.38-54.11,12.44-83.96-30.39-66.08h0ZM2436.41,1861.41c-27.18-35.39-165.25-41.99-252.15-31.31-87.03,10.37-217.66,63.56-206.3,95.49,5.83,11.96,17.72,6.6,77.51,1.22,59.95-5.98,227.89-27.18,262.89,18.57,35.16,46.06-53.56,265.49-69.77,300.88-15.66,35.39,5.98,44.51,35.39,20.94,29-23.56,81.51-84.58,116.74-170.92,34.99-86.82,56.33-207.93,35.68-234.87h0Z"/>
  <path class="st0" d="M1471.74,1035.62c0,126.37,3.19,231.76-60.68,343.98-51.55,91.25-133.22,147.36-224.46,147.36-124.55,0-197.09-94.9-197.09-234.95,0-276.48,247.72-326.65,482.23-326.65v70.26ZM1798.84,1826.26c-21.44,19.16-52.47,20.53-76.64,7.75-107.67-89.41-126.83-130.93-186.14-216.25-177.93,181.58-303.84,235.86-534.69,235.86-272.82,0-485.42-168.35-485.42-505.49,0-263.23,142.81-442.53,345.81-530.12,176.11-77.57,422.01-91.25,609.98-112.69v-41.98c0-77.11,5.92-168.35-39.24-234.95-39.7-59.77-115.43-84.4-182.04-84.4-123.63,0-234.04,63.41-260.95,194.8-5.48,29.21-26.92,57.95-56.11,59.31l-314.8-33.75c-26.46-5.94-55.65-27.38-48.35-67.99C642.78,114.98,987.22,0,1295.62,0,1453.48,0,1659.68,41.98,1784.24,161.51c157.86,147.35,142.8,343.98,142.8,557.95v505.49c0,151.92,62.96,218.53,122.26,300.65,20.98,29.2,25.55,64.33-.91,86.22-66.15,55.2-183.86,157.86-248.64,215.34l-.91-.91"/>
</svg>