<?xml version="1.0" encoding="UTF-8"?>
<svg id="Layer_1" xmlns="http://www.w3.org/2000/svg" version="1.1" viewBox="0 0 411.08 411.08">
  <!-- Generator: Adobe Illustrator 30.2.1, SVG Export Plug-In . SVG Version: 2.1.1 Build 1)  -->
  <defs>
    <style>
      .st0 {
        fill: #00a8e0;
      }
    </style>
  </defs>
  <g id="g3">
    <path id="path9" class="st0" d="M79.45,367.87c34.86,26.98,78.61,43.2,126.08,43.2,51.95,0,99.31-19.29,135.45-50.95.44-.39.22-.64-.21-.39-16.22,10.83-62.45,34.48-135.24,34.48-63.26,0-103.24-14.11-125.82-26.72-.43-.21-.59.11-.27.38M219.5,378.38c50.6,0,106.2-13.79,139.45-41.1,9.1-7.44,17.77-17.34,25.53-30.65,4.47-7.66,8.84-16.75,12.4-25.69.16-.44-.11-.65-.44-.16-30.92,45.51-120.47,73.89-212.94,73.89-65.36,0-135.68-20.9-163.21-60.81-.27-.37-.54-.21-.38.21,25.65,54.51,103.46,84.29,199.58,84.29M164.21,287.94C58.98,287.94,9.36,238.93.36,205.48c-.11-.48-.43-.38-.43.06,0,11.26,1.13,25.79,3.07,35.44.92,4.7,4.75,12.06,10.35,17.94,25.48,26.56,89.01,63.78,199.04,63.78,149.9,0,184.18-49.93,191.18-66.36,5.01-11.74,7.6-32.97,7.6-50.79,0-4.31-.11-7.76-.27-11.14,0-.55-.32-.59-.43-.06-7.49,40.18-135.57,93.6-246.24,93.6M19.75,117.37c-6.03,11.97-12.71,32.16-14.7,42.61-.87,4.48-.5,6.63,1.07,9.97,12.61,26.76,76.41,69.58,225.23,69.58,90.79,0,161.32-22.3,172.74-63.01,2.1-7.49,2.22-15.4-.49-26.06-3.02-11.91-8.68-25.8-13.46-35.56-.16-.32-.44-.27-.38.11,1.78,53.39-147.1,87.79-222.22,87.79-81.36,0-149.25-32.42-149.25-73.35,0-3.93.81-7.87,1.83-11.96.1-.37-.22-.44-.38-.11M341.32,51.82c.86,1.35,1.3,2.8,1.3,4.74,0,22.84-69.89,63.23-181.15,63.23-81.75,0-97.05-30.33-97.05-49.61,0-6.89,2.64-13.95,8.47-21.11.32-.43.05-.59-.32-.27-10.62,9-20.38,19.13-28.94,30.06-4.09,5.17-6.63,9.75-6.63,12.49,0,39.97,100.22,68.94,193.92,68.94,99.84,0,144.4-32.59,144.4-61.24,0-10.24-3.98-16.21-14.18-27.8-6.62-7.54-12.88-13.67-19.5-19.72-.32-.26-.54-.05-.32.27M310.71,28.99C279.9,10.52,244.12.01,205.54.01s-75.71,10.88-106.63,29.83c-9.28,5.71-14.5,10.28-14.5,16.17,0,17.34,40.51,35.98,112.39,35.98s126.3-20.42,126.3-40.07c0-4.69-4.1-7.97-12.4-12.93"/>
  </g>
</svg>