<svg version="1.1" id="Layer_1" xmlns="http://www.w3.org/2000/svg" xmlns:xlink="http://www.w3.org/1999/xlink" x="0px" y="0px" viewBox="0 0 48.2 48" style="enable-background:new 0 0 48.2 48;" xml:space="preserve">
 <style type="text/css">
  .st0{fill-rule:evenodd;clip-rule:evenodd;fill:#F65B66;}
 </style>
 <g>
  <g>
   <path class="st0" d="M24.1,48c-4.8,0-9.4-1.4-13.4-4c-4-2.6-7-6.4-8.9-10.8C0,28.8-0.5,24,0.5,19.3C1.4,14.7,3.7,10.4,7.1,7
			c3.4-3.4,7.7-5.6,12.3-6.6c4.7-0.9,9.5-0.5,13.9,1.4c4.4,1.8,8.2,4.9,10.8,8.8c2.6,3.9,4.1,8.6,4.1,13.3c0,6.4-2.5,12.5-7.1,17
			C36.6,45.5,30.5,48,24.1,48L24.1,48z M24.3,38.4c10,0,18.1-8.3,18.1-18.4c0-10.2-8.1-18.4-18.1-18.4C14.3,1.5,6.2,9.8,6.2,20
			C6.2,30.1,14.3,38.4,24.3,38.4L24.3,38.4z M24.1,34.2C15,34.2,7.6,27,7.6,18.2C7.6,9.4,15,2.3,24.1,2.3c9.1,0,16.5,7.1,16.5,15.9
			C40.6,27,33.2,34.2,24.1,34.2L24.1,34.2z M23.8,27.6c6.9,0,12.5-5.3,12.5-11.9c0-6.6-5.6-11.9-12.5-11.9
			c-6.9,0-12.5,5.3-12.5,11.9S16.9,27.6,23.8,27.6L23.8,27.6z M23.9,25.3c-5.4,0-9.8-4.6-9.8-10.4c0-5.7,4.4-10.4,9.8-10.4
			c5.4,0,9.8,4.6,9.8,10.4C33.7,20.7,29.3,25.3,23.9,25.3L23.9,25.3z M23.8,16.2c1.1,0,2.1-0.3,3-0.9c0.9-0.6,1.6-1.4,2-2.4
			c0.8-2,0.4-4.3-1.2-5.8c-1.5-1.5-3.8-2-5.8-1.2c-1,0.4-1.8,1.1-2.4,2c-0.6,0.9-0.9,1.9-0.9,2.9c0,1.4,0.6,2.8,1.6,3.7
			C21,15.7,22.3,16.2,23.8,16.2L23.8,16.2z M23.8,16.2">
   </path>
   <path class="st0" d="M24.1,48c-4.8,0-9.4-1.4-13.4-4c-4-2.6-7-6.4-8.9-10.8C0,28.8-0.5,24,0.5,19.3C1.4,14.7,3.7,10.4,7.1,7
			c3.4-3.4,7.7-5.6,12.3-6.6c4.7-0.9,9.5-0.5,13.9,1.4c4.4,1.8,8.2,4.9,10.8,8.8c2.6,3.9,4.1,8.6,4.1,13.3c0,6.4-2.5,12.5-7.1,17
			C36.6,45.5,30.5,48,24.1,48L24.1,48z M24.3,38.4c10,0,18.1-8.3,18.1-18.4c0-10.2-8.1-18.4-18.1-18.4C14.3,1.5,6.2,9.8,6.2,20
			C6.2,30.1,14.3,38.4,24.3,38.4L24.3,38.4z M24.1,34.2C15,34.2,7.6,27,7.6,18.2C7.6,9.4,15,2.3,24.1,2.3c9.1,0,16.5,7.1,16.5,15.9
			C40.6,27,33.2,34.2,24.1,34.2L24.1,34.2z M23.8,27.6c6.9,0,12.5-5.3,12.5-11.9c0-6.6-5.6-11.9-12.5-11.9
			c-6.9,0-12.5,5.3-12.5,11.9S16.9,27.6,23.8,27.6L23.8,27.6z M23.8,27.6">
   </path>
   <path class="st0" d="M24.1,48c-4.8,0-9.4-1.4-13.4-4c-4-2.6-7-6.4-8.9-10.8C0,28.8-0.5,24,0.5,19.3C1.4,14.7,3.7,10.4,7.1,7
			c3.4-3.4,7.7-5.6,12.3-6.6c4.7-0.9,9.5-0.5,13.9,1.4c4.4,1.8,8.2,4.9,10.8,8.8c2.6,3.9,4.1,8.6,4.1,13.3c0,6.4-2.5,12.5-7.1,17
			C36.6,45.5,30.5,48,24.1,48L24.1,48z M24.3,38.4c10,0,18.1-8.3,18.1-18.4c0-10.2-8.1-18.4-18.1-18.4C14.3,1.5,6.2,9.8,6.2,20
			C6.2,30.1,14.3,38.4,24.3,38.4L24.3,38.4z M24.3,38.4">
   </path>
  </g>
 </g>
</svg>