<svg viewBox="0 0 512 512" xmlns="http://www.w3.org/2000/svg" fill-rule="evenodd" clip-rule="evenodd" stroke-linejoin="round" stroke-miterlimit="2"><path d="M22.86 13.464l.002.002-10.005 11.105L0 10.419V4.315a.827.827 0 011.356-.637l14.265 11.846a3.722 3.722 0 004.758 0l2.481-2.06z" fill="url(#prefix___Linear1)" transform="matrix(13.8889 0 0 13.8889 6 6)"/><path d="M28.286 8.958l-5.426 4.506.002.002-7.184 6.345a3.31 3.31 0 01-4.308.065L0 10.42v18.142a3.724 3.724 0 003.724 3.724h24.562l2.571-11.664-2.571-11.664z" fill="url(#prefix___Radial2)" fill-rule="nonzero" transform="matrix(13.8889 0 0 13.8889 6 6)"/><path d="M28.286 8.963v23.323h3.99A3.724 3.724 0 0036 28.562V4.315a.827.827 0 00-1.356-.637l-6.358 5.285z" fill="url(#prefix___Linear3)" transform="matrix(13.8889 0 0 13.8889 6 6)"/><defs><linearGradient id="prefix___Linear1" x1="0" y1="0" x2="1" y2="0" gradientUnits="userSpaceOnUse" gradientTransform="scale(-43.6455) rotate(73.941 .222 -.49)"><stop offset="0" stop-color="#e3d9ff"/><stop offset="1" stop-color="#7341ff"/></linearGradient><linearGradient id="prefix___Linear3" x1="0" y1="0" x2="1" y2="0" gradientUnits="userSpaceOnUse" gradientTransform="scale(-66.0342) rotate(65.129 .243 -.95)"><stop offset="0" stop-color="#e3d9ff"/><stop offset=".27" stop-color="#e3d9ff"/><stop offset="1" stop-color="#7341ff"/></linearGradient><radialGradient id="prefix___Radial2" cx="0" cy="0" r="1" gradientUnits="userSpaceOnUse" gradientTransform="matrix(35.9848 0 0 33.9185 30.723 11.814)"><stop offset="0" stop-color="#6d4aff"/><stop offset=".56" stop-color="#6d4aff"/><stop offset=".99" stop-color="#aa8eff"/><stop offset="1" stop-color="#aa8eff"/></radialGradient></defs></svg>