<?xml version="1.0" encoding="UTF-8"?>
<svg id="Header" xmlns="http://www.w3.org/2000/svg" xmlns:xlink="http://www.w3.org/1999/xlink" viewBox="0 0 250 250">
  <defs>
    <linearGradient id="linear-gradient" x1="125" y1="245.38" x2="125" y2="4.62" gradientUnits="userSpaceOnUse">
      <stop offset="0" stop-color="#b11e1b"/>
      <stop offset="1" stop-color="#2346dd"/>
    </linearGradient>
  </defs>
  <path d="M216.72,84.87h-22.93v-11.46c0-37.99-30.79-68.79-68.78-68.79S56.21,35.42,56.21,73.41v11.46h-22.92c-6.33,0-11.47,5.13-11.47,11.47v137.57c0,6.33,5.13,11.47,11.47,11.47h183.43c6.33,0,11.47-5.13,11.47-11.47V96.34c0-6.33-5.13-11.47-11.47-11.47ZM79.14,73.41c0-25.34,20.53-45.86,45.86-45.86s45.86,20.52,45.86,45.86v11.46h-91.72v-11.46ZM72.9,167.76l3.59,3.9-6.21,4.66-2.55-4.66c-.37-.67-.97-1.97-1.79-3.9-.9,2.12-1.49,3.41-1.79,3.9l-2.59,4.66-6.38-4.66,3.86-3.9c1.08-1.08,2.14-2,3.17-2.76-1.06-.09-2.45-.3-4.17-.62l-5.35-.86,2.48-7.28,4.79,2.17c.51.23,1.76.94,3.76,2.14-.44-1.93-.71-3.37-.83-4.31l-.69-5.21h7.62l-.62,5.21c-.14,1.26-.43,2.7-.86,4.31.87-.44,1.45-.74,1.72-.9.97-.53,1.7-.91,2.21-1.14l4.79-2.28,2.38,7.28-5.31,1.1c-.97.18-2.4.31-4.31.38,1.29,1.01,2.31,1.93,3.07,2.76ZM112.19,167.76l3.59,3.9-6.21,4.66-2.55-4.66c-.37-.67-.97-1.97-1.79-3.9-.9,2.12-1.49,3.41-1.79,3.9l-2.59,4.66-6.38-4.66,3.86-3.9c1.08-1.08,2.14-2,3.17-2.76-1.06-.09-2.45-.3-4.17-.62l-5.35-.86,2.48-7.28,4.79,2.17c.51.23,1.76.94,3.76,2.14-.44-1.93-.71-3.37-.83-4.31l-.69-5.21h7.62l-.62,5.21c-.14,1.26-.43,2.7-.86,4.31.87-.44,1.45-.74,1.72-.9.97-.53,1.7-.91,2.21-1.14l4.79-2.28,2.38,7.28-5.31,1.1c-.97.18-2.4.31-4.31.38,1.29,1.01,2.31,1.93,3.07,2.76ZM151.47,167.76l3.59,3.9-6.21,4.66-2.55-4.66c-.37-.67-.97-1.97-1.79-3.9-.9,2.12-1.49,3.41-1.79,3.9l-2.59,4.66-6.38-4.66,3.86-3.9c1.08-1.08,2.14-2,3.17-2.76-1.06-.09-2.45-.3-4.17-.62l-5.35-.86,2.48-7.28,4.79,2.17c.51.23,1.76.94,3.76,2.14-.44-1.93-.71-3.37-.83-4.31l-.69-5.21h7.62l-.62,5.21c-.14,1.26-.43,2.7-.86,4.31.87-.44,1.45-.74,1.72-.9.97-.53,1.7-.91,2.21-1.14l4.79-2.28,2.38,7.28-5.31,1.1c-.97.18-2.4.31-4.31.38,1.29,1.01,2.31,1.93,3.07,2.76ZM190.76,167.76l3.59,3.9-6.21,4.66-2.55-4.66c-.37-.67-.97-1.97-1.79-3.9-.9,2.12-1.49,3.41-1.79,3.9l-2.59,4.66-6.38-4.66,3.86-3.9c1.08-1.08,2.14-2,3.17-2.76-1.06-.09-2.45-.3-4.17-.62l-5.35-.86,2.48-7.28,4.79,2.17c.51.23,1.76.94,3.76,2.14-.44-1.93-.71-3.37-.83-4.31l-.69-5.21h7.62l-.62,5.21c-.14,1.26-.43,2.7-.86,4.31.87-.44,1.45-.74,1.72-.9.97-.53,1.7-.91,2.21-1.14l4.79-2.28,2.38,7.28-5.31,1.1c-.97.18-2.4.31-4.31.38,1.29,1.01,2.31,1.93,3.07,2.76Z" style="fill: url(#linear-gradient);"/>
</svg>